<?xml version="1.0" encoding="UTF-8" standalone="no"?>
<!-- Created with Inkscape (http://www.inkscape.org/) -->

<svg
   xmlns:dc="http://purl.org/dc/elements/1.1/"
   xmlns:cc="http://creativecommons.org/ns#"
   xmlns:rdf="http://www.w3.org/1999/02/22-rdf-syntax-ns#"
   xmlns:svg="http://www.w3.org/2000/svg"
   xmlns="http://www.w3.org/2000/svg"
   xmlns:sodipodi="http://sodipodi.sourceforge.net/DTD/sodipodi-0.dtd"
   xmlns:inkscape="http://www.inkscape.org/namespaces/inkscape"
   width="18"
   height="18"
   id="svg3949"
   version="1.1"
   inkscape:version="0.48.0 r9654"
   sodipodi:docname="ic_menu_cleanup.svg">
  <defs
     id="defs3" />
  <sodipodi:namedview
     inkscape:document-units="mm"
     id="base"
     pagecolor="#ffffff"
     bordercolor="#666666"
     borderopacity="1.0"
     inkscape:pageopacity="0.0"
     inkscape:pageshadow="2"
     inkscape:zoom="32"
     inkscape:cx="0.7002584"
     inkscape:cy="7.8426105"
     inkscape:current-layer="layer1"
     showgrid="true"
     units="px"
     inkscape:window-width="1280"
     inkscape:window-height="750"
     inkscape:window-x="-8"
     inkscape:window-y="-8"
     inkscape:window-maximized="1">
    <inkscape:grid
       type="xygrid"
       id="grid3955"
       empspacing="5"
       visible="true"
       enabled="true"
       snapvisiblegridlinesonly="true" />
  </sodipodi:namedview>
  <metadata
     id="metadata4">
    <rdf:RDF>
      <cc:Work
         rdf:about="">
        <dc:format>image/svg+xml</dc:format>
        <dc:type
           rdf:resource="http://purl.org/dc/dcmitype/StillImage" />
        <dc:title />
      </cc:Work>
    </rdf:RDF>
  </metadata>
  <g
     inkscape:label="Layer 1"
     inkscape:groupmode="layer"
     id="layer1"
     transform="translate(0,-1034.3622)">
    <path
       inkscape:connector-curvature="0"
       style="opacity:0.6;fill:#333333;fill-opacity:0.2;fill-rule:nonzero;stroke:#221733;stroke-width:0.02301844;stroke-linecap:butt;stroke-linejoin:round;stroke-miterlimit:4;stroke-opacity:0.2;stroke-dasharray:none"
       d="m 1.4410547,1034.3884 c -0.1388677,0 -0.1972293,0.011 -0.31011,0.047 -0.3018518,0.095 -0.59846765,0.2695 -0.78455942,0.4569 -0.1196259,0.1204 -0.26290963,0.393 -0.29339695,0.5396 -0.03356962,0.1612 -0.03856754,0.5245 0,0.7031 0.11729355,0.5433 0.50952378,1.267 1.11323847,2.0619 0.3119656,0.4108 0.5926803,0.7411 1.2543666,1.4768 0.8486747,0.9438 0.9011194,1.0108 0.8086996,1.0904 -0.02407,0.021 -0.375895,0.2323 -0.773418,0.4802 l -0.7149236,0.457 0.6675716,0.5981 0.6675721,0.5972 0.024141,0.3864 c 0.099901,1.4241 0.3697567,2.7933 0.7734176,3.9966 0.4723473,1.408 1.1543154,2.6402 1.9683621,3.5386 0.6959018,0.7681 1.5613147,1.3859 2.0974198,1.4889 0.1859831,0.036 0.2855883,0.038 0.5867949,0.011 1.5817435,-0.1424 4.6385095,-1.539 8.4723125,-3.8786 0.886843,-0.5411 0.994829,-0.6158 0.973039,-0.6324 -0.0096,-0.01 -0.115213,-0.047 -0.234903,-0.083 -0.248334,-0.076 -0.77409,-0.2774 -1.019463,-0.3864 -0.64537,-0.2867 -1.494875,-0.7789 -2.155913,-1.2659 -0.705992,-0.5202 -1.315534,-1.0404 -2.742708,-2.3555 -1.352155,-1.2459 -1.9856383,-1.7969 -2.6600746,-2.2736 -0.4788388,-0.3385 -1.00127,-0.6454 -1.4057078,-0.8313 -0.1833126,-0.084 -0.202658,-0.095 -0.2228331,-0.1644 -0.012233,-0.042 -0.1016105,-0.3525 -0.1996218,-0.691 -0.2532359,-0.8749 -0.2301917,-0.8045 -0.2813274,-0.7969 -0.02438,0.01 -0.3469328,0.1273 -0.7149239,0.2693 -0.5089658,0.1965 -0.6745786,0.2497 -0.7028538,0.2341 -0.03504,-0.019 -0.1128358,-0.1906 -0.4800203,-1.0542 -0.4635646,-1.0903 -1.0334385,-2.1241 -1.5004121,-2.7306 -0.4223064,-0.5485 -0.83002,-0.9085 -1.2543664,-1.1137 -0.3070045,-0.1483 -0.4248899,-0.1755 -0.7845598,-0.1755 -0.06935,0 -0.1245499,0 -0.1708387,0 z m -0.056637,0.6205 c 0.2943313,0 0.5329431,0.2387 0.5329431,0.5331 0,0.2945 -0.2386118,0.5331 -0.5329431,0.5331 -0.2943319,0 -0.53294353,-0.2386 -0.53294353,-0.5331 0,-0.2944 0.23861163,-0.5331 0.53294353,-0.5331 z"
       id="path3931" />
    <path
       inkscape:connector-curvature="0"
       style="opacity:0.80000000000000004;fill:#ffffff;fill-opacity:1;fill-rule:nonzero;stroke:none;stroke-width:0.02301844000000000;stroke-linecap:butt;stroke-linejoin:round;stroke-miterlimit:4;stroke-opacity:0.20000000000000001;stroke-dasharray:none"
       d="m 1.4411216,1034.3882 c -0.1388677,0 -0.1972293,0.011 -0.3101103,0.046 -0.30185138,0.095 -0.59846771,0.2696 -0.78455897,0.4569 -0.11962641,0.1205 -0.26290964,0.3931 -0.29339746,0.5397 -0.03356962,0.1612 -0.03856754,0.5244 0,0.7031 0.11729355,0.5432 0.50952378,1.267 1.11323853,2.0619 0.3119659,0.4108 0.5926804,0.741 1.2543666,1.4768 0.8486747,0.9437 0.9011197,1.0108 0.8086999,1.0904 -0.02407,0.021 -0.3758952,0.2323 -0.7734178,0.4801 l -0.7149238,0.457 0.6675716,0.5982 0.6675721,0.5972 0.024141,0.3864 c 0.099901,1.424 0.3697564,2.7933 0.7734176,3.9966 0.472347,1.408 1.1543157,2.6401 1.9683624,3.5386 0.6959016,0.7681 1.5613144,1.3858 2.0974196,1.4889 0.1859833,0.036 0.2855885,0.039 0.5867951,0.011 1.5817433,-0.1424 4.6385093,-1.539 8.4723123,-3.8786 0.886843,-0.5412 0.994828,-0.6159 0.973039,-0.6325 -0.0096,-0.01 -0.115213,-0.046 -0.234903,-0.083 -0.248334,-0.075 -0.77409,-0.2774 -1.019462,-0.3864 -0.645371,-0.2867 -1.494877,-0.7788 -2.155914,-1.2659 -0.705993,-0.5202 -1.315535,-1.0404 -2.742709,-2.3554 -1.352154,-1.2459 -1.9856371,-1.7969 -2.6600734,-2.2737 -0.4788388,-0.3384 -1.0012702,-0.6454 -1.4057081,-0.8313 -0.1833126,-0.084 -0.2026577,-0.095 -0.2228331,-0.1643 -0.012233,-0.042 -0.1016105,-0.3525 -0.1996218,-0.6911 -0.2532359,-0.8749 -0.2301914,-0.8045 -0.2813273,-0.7968 -0.024381,0 -0.3469327,0.1273 -0.7149238,0.2693 -0.508966,0.1964 -0.6745788,0.2496 -0.7028537,0.2341 -0.035041,-0.019 -0.1128361,-0.1907 -0.4800206,-1.0543 -0.4635646,-1.0902 -1.0334388,-2.1241 -1.5004121,-2.7306 -0.4223064,-0.5484 -0.8300197,-0.9085 -1.2543664,-1.1136 -0.3070044,-0.1483 -0.4248898,-0.1756 -0.78456,-0.1756 -0.06935,0 -0.1245497,0 -0.1708383,0 z m -0.056637,0.6204 c 0.294331,0 0.5329429,0.2387 0.5329429,0.5332 0,0.2944 -0.2386119,0.533 -0.5329429,0.533 -0.294332,0 -0.53294399,-0.2386 -0.53294399,-0.533 0,-0.2945 0.23861199,-0.5332 0.53294399,-0.5332 z"
       id="path3931-1" />
  </g>
</svg>
