<?xml version="1.0" encoding="UTF-8" standalone="no"?>
<!-- Created with Inkscape (http://www.inkscape.org/) -->

<svg
   xmlns:dc="http://purl.org/dc/elements/1.1/"
   xmlns:cc="http://creativecommons.org/ns#"
   xmlns:rdf="http://www.w3.org/1999/02/22-rdf-syntax-ns#"
   xmlns:svg="http://www.w3.org/2000/svg"
   xmlns="http://www.w3.org/2000/svg"
   xmlns:sodipodi="http://sodipodi.sourceforge.net/DTD/sodipodi-0.dtd"
   xmlns:inkscape="http://www.inkscape.org/namespaces/inkscape"
   width="36"
   height="36"
   id="svg4003"
   version="1.1"
   inkscape:version="0.48.2 r9819"
   sodipodi:docname="ic_menu_cleanup 36x36.svg">
  <defs
     id="defs4005" />
  <sodipodi:namedview
     id="base"
     pagecolor="#ffffff"
     bordercolor="#666666"
     borderopacity="1.0"
     inkscape:pageopacity="0.0"
     inkscape:pageshadow="2"
     inkscape:zoom="11.2"
     inkscape:cx="18.02257"
     inkscape:cy="18.880975"
     inkscape:document-units="px"
     inkscape:current-layer="layer1"
     showgrid="true"
     inkscape:window-width="1280"
     inkscape:window-height="921"
     inkscape:window-x="-4"
     inkscape:window-y="-4"
     inkscape:window-maximized="1"
     showguides="true"
     inkscape:guide-bbox="true">
    <inkscape:grid
       type="xygrid"
       id="grid4011"
       empspacing="5"
       visible="true"
       enabled="true"
       snapvisiblegridlinesonly="true" />
  </sodipodi:namedview>
  <metadata
     id="metadata4008">
    <rdf:RDF>
      <cc:Work
         rdf:about="">
        <dc:format>image/svg+xml</dc:format>
        <dc:type
           rdf:resource="http://purl.org/dc/dcmitype/StillImage" />
        <dc:title />
      </cc:Work>
    </rdf:RDF>
  </metadata>
  <g
     inkscape:label="Layer 1"
     inkscape:groupmode="layer"
     id="layer1"
     transform="translate(0,-1016.3622)">
    <path
       inkscape:connector-curvature="0"
       style="opacity:0.6;fill:#333333;fill-opacity:0.2;fill-rule:nonzero;stroke:#221733;stroke-width:0.02301844;stroke-linecap:butt;stroke-linejoin:round;stroke-miterlimit:4;stroke-opacity:0.2;stroke-dasharray:none"
       d="m 2.8910133,1016.4249 c -0.277573,0 -0.3942281,0.022 -0.6198576,0.093 -0.6033506,0.1906 -1.1962361,0.5388 -1.56820148,0.9133 -0.23911258,0.2408 -0.52551211,0.7857 -0.58645166,1.0787 -0.06710112,0.3222 -0.07709448,1.0483 0,1.4054 0.23445001,1.0859 1.01845204,2.5325 2.22517614,4.1214 0.6235667,0.8212 1.184668,1.4813 2.5072672,2.9519 1.6963569,1.8864 1.8011855,2.0205 1.6164539,2.1796 -0.048112,0.042 -0.751351,0.4643 -1.5459319,0.9598 l -1.4290116,0.9134 1.3343629,1.1956 1.3343639,1.1937 0.048251,0.7724 c 0.1996847,2.8465 0.7390808,5.5834 1.5459313,7.9886 0.9441422,2.8144 2.3072816,5.2773 3.9344236,7.0732 1.39099,1.5353 3.120804,2.7701 4.192388,2.9761 0.371749,0.072 0.570843,0.077 1.172904,0.022 3.161637,-0.2846 9.271596,-3.0762 16.934724,-7.7528 1.772649,-1.0817 1.988492,-1.231 1.944941,-1.2642 -0.0192,-0.015 -0.230292,-0.093 -0.469532,-0.1653 -0.496379,-0.1509 -1.547276,-0.5544 -2.037734,-0.7723 -1.289986,-0.5731 -2.988006,-1.5568 -4.309308,-2.5304 -1.41116,-1.0398 -2.629532,-2.0796 -5.482211,-4.7082 -2.702728,-2.4904 -3.968955,-3.5918 -5.317039,-4.5447 -0.957118,-0.6765 -2.00137,-1.29 -2.809773,-1.6616 -0.366411,-0.1685 -0.405079,-0.1901 -0.445406,-0.3286 -0.02445,-0.084 -0.203102,-0.7045 -0.39901,-1.3813 -0.506176,-1.7488 -0.460114,-1.608 -0.562326,-1.5928 -0.04873,0.01 -0.69346,0.2545 -1.429012,0.5383 -1.017337,0.3927 -1.348369,0.499 -1.404886,0.4679 -0.07004,-0.039 -0.22554,-0.381 -0.95948,-2.1072 -0.9265873,-2.1793 -2.0656692,-4.2458 -2.99907,-5.4581 -0.8441194,-1.0963 -1.6590699,-1.816 -2.5072668,-2.226 -0.6136502,-0.2965 -0.8492831,-0.3509 -1.5682026,-0.3509 -0.1386195,0 -0.2489543,0 -0.3414777,0 z m -0.1132072,1.2402 c 0.5883187,0 1.0652633,0.4771 1.0652633,1.0657 0,0.5885 -0.4769446,1.0655 -1.0652633,1.0655 -0.5883197,0 -1.0652643,-0.477 -1.0652643,-1.0655 0,-0.5886 0.4769446,-1.0657 1.0652643,-1.0657 z"
       id="path3931" />
    <path
       inkscape:connector-curvature="0"
       style="opacity:0.8;fill:#ffffff;fill-opacity:1;fill-rule:nonzero;stroke:#221733;stroke-width:0.02301844;stroke-linecap:butt;stroke-linejoin:round;stroke-miterlimit:4;stroke-opacity:0.2;stroke-dasharray:none"
       d="m 2.891147,1016.4244 c -0.277573,0 -0.394228,0.022 -0.619858,0.093 -0.60335,0.1906 -1.196236,0.5388 -1.56820102,0.9133 -0.239113,0.2408 -0.525512,0.7857 -0.586452,1.0787 -0.0671,0.3222 -0.07709,1.0483 0,1.4054 0.23445,1.0859 1.01845202,2.5325 2.22517602,4.1214 0.623567,0.8212 1.184668,1.4813 2.507267,2.9519 1.6963574,1.8864 1.801186,2.0205 1.6164544,2.1796 -0.048112,0.042 -0.7513514,0.4643 -1.5459314,0.9598 l -1.429012,0.9134 1.334363,1.1956 1.3343637,1.1937 0.048251,0.7724 c 0.1996847,2.8465 0.7390808,5.5834 1.5459313,7.9886 0.9441422,2.8144 2.307282,5.2773 3.934424,7.0732 1.39099,1.5353 3.120804,2.7701 4.192388,2.9761 0.371749,0.072 0.570843,0.077 1.172904,0.022 3.161637,-0.2846 9.271596,-3.0762 16.934724,-7.7528 1.772649,-1.0817 1.988492,-1.231 1.944941,-1.2642 -0.0192,-0.015 -0.230292,-0.093 -0.469532,-0.1653 -0.496379,-0.1509 -1.547276,-0.5544 -2.037734,-0.7723 -1.289986,-0.5731 -2.988006,-1.5568 -4.309308,-2.5304 -1.41116,-1.0398 -2.629532,-2.0796 -5.482211,-4.7082 -2.702728,-2.4904 -3.968955,-3.5918 -5.317039,-4.5447 -0.957118,-0.6765 -2.00137,-1.29 -2.809773,-1.6616 -0.366411,-0.1685 -0.405079,-0.1901 -0.445406,-0.3286 -0.02445,-0.084 -0.203102,-0.7045 -0.39901,-1.3813 -0.506176,-1.7488 -0.460114,-1.608 -0.562326,-1.5928 -0.04873,0.01 -0.69346,0.2545 -1.429012,0.5383 -1.017337,0.3927 -1.348369,0.499 -1.404886,0.4679 -0.07004,-0.039 -0.22554,-0.381 -0.95948,-2.1072 -0.9265877,-2.1793 -2.0656696,-4.2458 -2.9990704,-5.4581 -0.8441194,-1.0963 -1.6590696,-1.816 -2.5072666,-2.226 -0.61365,-0.2965 -0.849283,-0.3509 -1.568203,-0.3509 -0.138619,0 -0.248954,0 -0.341477,0 z m -0.113207,1.2402 c 0.588318,0 1.065263,0.4771 1.065263,1.0657 0,0.5885 -0.476945,1.0655 -1.065263,1.0655 -0.58832,0 -1.065265,-0.477 -1.065265,-1.0655 0,-0.5886 0.476945,-1.0657 1.065265,-1.0657 z"
       id="path3931-1" />
  </g>
</svg>
