<?xml version="1.0" encoding="UTF-8" standalone="no"?>
<!-- Created with Inkscape (http://www.inkscape.org/) -->

<svg
   xmlns:dc="http://purl.org/dc/elements/1.1/"
   xmlns:cc="http://creativecommons.org/ns#"
   xmlns:rdf="http://www.w3.org/1999/02/22-rdf-syntax-ns#"
   xmlns:svg="http://www.w3.org/2000/svg"
   xmlns="http://www.w3.org/2000/svg"
   xmlns:xlink="http://www.w3.org/1999/xlink"
   xmlns:sodipodi="http://sodipodi.sourceforge.net/DTD/sodipodi-0.dtd"
   xmlns:inkscape="http://www.inkscape.org/namespaces/inkscape"
   width="48px"
   height="48px"
   id="svg2383"
   sodipodi:version="0.32"
   inkscape:version="0.48.2 r9819"
   sodipodi:docname="ic_menu_add_list_light.svg"
   inkscape:output_extension="org.inkscape.output.svg.inkscape"
   inkscape:export-filename="E:\My Documents\Programming\Google Code-In\icon\ic_menu_add_list_holo_light\ldpi\ic_menu_add_list.png"
   inkscape:export-xdpi="33.75"
   inkscape:export-ydpi="33.75"
   version="1.1">
  <defs
     id="defs2385">
    <linearGradient
       id="linearGradient3386">
      <stop
         style="stop-color:#808080;stop-opacity:1;"
         offset="0"
         id="stop3388" />
      <stop
         style="stop-color:#595959;stop-opacity:1;"
         offset="1"
         id="stop3390" />
    </linearGradient>
    <linearGradient
       id="linearGradient3380">
      <stop
         style="stop-color:#dbdbdb;stop-opacity:1;"
         offset="0"
         id="stop3382" />
      <stop
         style="stop-color:#b2b2b2;stop-opacity:1;"
         offset="1"
         id="stop3384" />
    </linearGradient>
    <linearGradient
       id="linearGradient3353">
      <stop
         id="stop3355"
         offset="0"
         style="stop-color:#aaaaaa;stop-opacity:1;" />
      <stop
         id="stop3357"
         offset="1"
         style="stop-color:#7f7f7f;stop-opacity:1;" />
    </linearGradient>
    <inkscape:perspective
       sodipodi:type="inkscape:persp3d"
       inkscape:vp_x="0 : 24 : 1"
       inkscape:vp_y="0 : 1000 : 0"
       inkscape:vp_z="48 : 24 : 1"
       inkscape:persp3d-origin="24 : 16 : 1"
       id="perspective2391" />
    <inkscape:perspective
       id="perspective2474"
       inkscape:persp3d-origin="372.04724 : 350.78739 : 1"
       inkscape:vp_z="744.09448 : 526.18109 : 1"
       inkscape:vp_y="0 : 1000 : 0"
       inkscape:vp_x="0 : 526.18109 : 1"
       sodipodi:type="inkscape:persp3d" />
    <inkscape:perspective
       id="perspective2544"
       inkscape:persp3d-origin="372.04724 : 350.78739 : 1"
       inkscape:vp_z="744.09448 : 526.18109 : 1"
       inkscape:vp_y="0 : 1000 : 0"
       inkscape:vp_x="0 : 526.18109 : 1"
       sodipodi:type="inkscape:persp3d" />
    <linearGradient
       inkscape:collect="always"
       xlink:href="#linearGradient3386"
       id="linearGradient3378"
       gradientUnits="userSpaceOnUse"
       gradientTransform="translate(-94.674106,-16.4375)"
       x1="21.571428"
       y1="7.5714288"
       x2="21.285719"
       y2="38.285713" />
    <linearGradient
       inkscape:collect="always"
       xlink:href="#linearGradient3380"
       id="linearGradient3408"
       gradientUnits="userSpaceOnUse"
       gradientTransform="translate(2.8750005,0.6562497)"
       x1="21.571428"
       y1="7.5714288"
       x2="21.285719"
       y2="38.285713" />
    <inkscape:perspective
       id="perspective3482"
       inkscape:persp3d-origin="372.04724 : 350.78739 : 1"
       inkscape:vp_z="744.09448 : 526.18109 : 1"
       inkscape:vp_y="0 : 1000 : 0"
       inkscape:vp_x="0 : 526.18109 : 1"
       sodipodi:type="inkscape:persp3d" />
    <linearGradient
       inkscape:collect="always"
       xlink:href="#linearGradient3353"
       id="linearGradient3510"
       gradientUnits="userSpaceOnUse"
       gradientTransform="matrix(0.673913,0,0,0.9085366,-63.016304,-41.769819)"
       x1="13.75"
       y1="66.75"
       x2="13.625"
       y2="87.25" />
    <linearGradient
       inkscape:collect="always"
       xlink:href="#linearGradient3353"
       id="linearGradient3514"
       gradientUnits="userSpaceOnUse"
       gradientTransform="matrix(0.673913,0,0,0.9085366,-12.391304,-15.144819)"
       x1="13.75"
       y1="66.75"
       x2="13.625"
       y2="87.25" />
    <linearGradient
       inkscape:collect="always"
       xlink:href="#linearGradient3386"
       id="linearGradient3529"
       gradientUnits="userSpaceOnUse"
       gradientTransform="matrix(0.673913,0,0,0.9085366,-39.391304,-36.769819)"
       x1="13.75"
       y1="66.75"
       x2="13.625"
       y2="87.25" />
  </defs>
  <sodipodi:namedview
     id="base"
     pagecolor="#ffffff"
     bordercolor="#666666"
     borderopacity="1.0"
     inkscape:pageopacity="0.0"
     inkscape:pageshadow="2"
     inkscape:zoom="4"
     inkscape:cx="38.664179"
     inkscape:cy="-0.625"
     inkscape:current-layer="layer1"
     showgrid="true"
     inkscape:grid-bbox="true"
     inkscape:document-units="px"
     inkscape:window-width="1024"
     inkscape:window-height="706"
     inkscape:window-x="-8"
     inkscape:window-y="-8"
     inkscape:window-maximized="1">
    <inkscape:grid
       type="xygrid"
       id="grid3406" />
  </sodipodi:namedview>
  <metadata
     id="metadata2388">
    <rdf:RDF>
      <cc:Work
         rdf:about="">
        <dc:format>image/svg+xml</dc:format>
        <dc:type
           rdf:resource="http://purl.org/dc/dcmitype/StillImage" />
        <dc:title></dc:title>
      </cc:Work>
    </rdf:RDF>
  </metadata>
  <g
     id="layer1"
     inkscape:label="Layer 1"
     inkscape:groupmode="layer"
     style="display:inline">
    <path
       id="path3525"
       d="M 15.6875,22.975 C 10.34,22.975 6,27.147 6,32.2875 6,37.428 10.34,41.6 15.6875,41.6 c 5.3475,0 9.687499,-4.172 9.6875,-9.3125 0,-5.1405 -4.340001,-9.3125 -9.6875,-9.3125 z m -1.8125,4.5 3.625,0 0,3.0625 3.125,0 0,3.5 -3.125,0 0,3.0625 -3.625,0 0,-3.0625 -3.125,0 0,-3.5 3.125,0 0,-3.0625 z"
       style="opacity:0.6;fill:#333333;fill-opacity:1;fill-rule:evenodd;stroke:none;stroke-width:7;marker:none;visibility:visible;display:inline;overflow:visible;enable-background:accumulate"
       inkscape:connector-curvature="0" />
    <path
       style="opacity:0.6;fill:#333333;fill-opacity:1;fill-rule:evenodd;stroke:none;stroke-width:7;marker:none;visibility:visible;display:inline;overflow:visible;enable-background:accumulate"
       d="m 15.775,5.98125 c -1.050798,0 -1.875,0.919982 -1.875,2.0625 l 0,13.03125 c 0.390791,-0.03609 0.786864,-0.0625 1.1875,-0.0625 3.357472,0 6.415298,1.308318 8.625,3.40625 l 10.4375,0 c 0.496798,0 0.875,0.473982 0.875,1.0625 l 0,1.3125 c 0,0.588518 -0.378202,1.0625 -0.875,1.0625 l -7.9375,0 c 0.701594,1.473525 1.09375,3.11999 1.09375,4.84375 0,1.4063 -0.273201,2.750852 -0.75,4 l 12,0 c 1.050798,0 1.906252,-0.919983 1.90625,-2.0625 l 0,-26.59375 c 0,-1.142518 -0.85545,-2.0625 -1.90625,-2.0625 l -22.78125,0 z m 2.4375,4.28125 15.9375,0 c 0.496798,0 0.875,0.473982 0.875,1.0625 l 0,1.3125 c 0,0.588517 -0.378202,1.0625 -0.875,1.0625 l -15.9375,0 c -0.496799,0 -0.90625,-0.473982 -0.90625,-1.0625 l 0,-1.3125 c 0,-0.588518 0.409452,-1.0625 0.90625,-1.0625 z m 0,7.09375 15.9375,0 c 0.496798,0 0.875,0.473982 0.875,1.0625 l 0,1.28125 c 0,0.588518 -0.378202,1.0625 -0.875,1.0625 l -15.9375,0 c -0.496799,0 -0.90625,-0.473982 -0.90625,-1.0625 l 0,-1.28125 c 0,-0.588517 0.409452,-1.0625 0.90625,-1.0625 z"
       id="rect2550"
       inkscape:connector-curvature="0" />
    <path
       sodipodi:type="arc"
       style="opacity:1;fill:#898989;fill-opacity:1;fill-rule:evenodd;stroke:none;stroke-width:7;stroke-linecap:round;stroke-linejoin:round;marker:none;marker-start:none;marker-mid:none;marker-end:none;stroke-miterlimit:4;stroke-dasharray:none;stroke-dashoffset:0;stroke-opacity:1;visibility:visible;display:inline;overflow:visible;enable-background:accumulate"
       id="path3488"
       sodipodi:cx="13.25"
       sodipodi:cy="76.5"
       sodipodi:rx="9"
       sodipodi:ry="9"
       d="M 22.25,76.5 A 9,9 0 0 1 22.25,76.500099"
       sodipodi:start="0"
       sodipodi:end="1.0950573e-05"
       sodipodi:open="true" />
  </g>
</svg>
