<?xml version="1.0" encoding="UTF-8" standalone="no"?>
<!-- Created with Inkscape (http://www.inkscape.org/) -->

<svg
   xmlns:dc="http://purl.org/dc/elements/1.1/"
   xmlns:cc="http://creativecommons.org/ns#"
   xmlns:rdf="http://www.w3.org/1999/02/22-rdf-syntax-ns#"
   xmlns:svg="http://www.w3.org/2000/svg"
   xmlns="http://www.w3.org/2000/svg"
   xmlns:xlink="http://www.w3.org/1999/xlink"
   xmlns:sodipodi="http://sodipodi.sourceforge.net/DTD/sodipodi-0.dtd"
   xmlns:inkscape="http://www.inkscape.org/namespaces/inkscape"
   width="18"
   height="18"
   id="svg2"
   version="1.1"
   inkscape:version="0.48.2 r9819"
   sodipodi:docname="ic_menu_theme_holo_light.svg"
   inkscape:export-filename="C:\Users\Lumnatiq\Desktop\SVGs and Icons for Brymka\ic_menu_theme\ic_menu_theme_holo_light\ldpi\ic_menu_theme.png"
   inkscape:export-xdpi="90"
   inkscape:export-ydpi="90">
  <defs
     id="defs4" />
  <sodipodi:namedview
     id="base"
     pagecolor="#ffffff"
     bordercolor="#666666"
     borderopacity="1.0"
     inkscape:pageopacity="0.0"
     inkscape:pageshadow="2"
     inkscape:zoom="11.2"
     inkscape:cx="18.185685"
     inkscape:cy="9.3984775"
     inkscape:document-units="px"
     inkscape:current-layer="layer1"
     showgrid="false"
     showguides="true"
     inkscape:guide-bbox="true"
     inkscape:window-width="1304"
     inkscape:window-height="746"
     inkscape:window-x="54"
     inkscape:window-y="-8"
     inkscape:window-maximized="1" />
  <metadata
     id="metadata7">
    <rdf:RDF>
      <cc:Work
         rdf:about="">
        <dc:format>image/svg+xml</dc:format>
        <dc:type
           rdf:resource="http://purl.org/dc/dcmitype/StillImage" />
        <dc:title />
      </cc:Work>
    </rdf:RDF>
  </metadata>
  <g
     inkscape:label="Layer 1"
     inkscape:groupmode="layer"
     id="layer1"
     transform="translate(0,-1034.3622)">
    <use
       xlink:href="#outline1"
       class="aluminium4"
       id="use39"
       transform="translate(365.55932,948.22659)"
       style="fill:#888a85"
       x="0"
       y="0"
       width="128"
       height="128" />
    <use
       xlink:href="#outline1"
       class="aluminium4"
       id="use39-1"
       transform="translate(365.55932,948.22659)"
       style="fill:#888a85"
       x="0"
       y="0"
       width="128"
       height="128" />
    <use
       xlink:href="#outline1"
       class="aluminium4"
       id="use39-7"
       transform="translate(365.55932,948.22659)"
       style="fill:#888a85"
       x="0"
       y="0"
       width="128"
       height="128" />
    <use
       xlink:href="#outline1"
       class="aluminium4"
       id="use39-4"
       transform="translate(365.55932,948.22659)"
       style="fill:#888a85"
       x="0"
       y="0"
       width="128"
       height="128" />
    <use
       xlink:href="#outline1"
       class="aluminium4"
       id="use39-1-0"
       transform="translate(263.31865,1159.8642)"
       style="fill:#888a85"
       x="0"
       y="0"
       width="128"
       height="128" />
    <use
       xlink:href="#outline1"
       class="aluminium4"
       id="use39-1-9"
       transform="translate(212.87797,1061.6947)"
       style="fill:#888a85"
       x="0"
       y="0"
       width="128"
       height="128" />
    <use
       xlink:href="#outline1"
       class="aluminium4"
       id="use39-1-7"
       transform="translate(250.84407,1098.5761)"
       style="fill:#888a85"
       x="0"
       y="0"
       width="128"
       height="128" />
    <use
       xlink:href="#outline1"
       class="aluminium4"
       id="use39-1-7-4"
       transform="translate(250.84407,1098.5761)"
       style="fill:#888a85"
       x="0"
       y="0"
       width="128"
       height="128" />
    <use
       xlink:href="#outline1"
       class="aluminium4"
       id="use39-1-7-8"
       transform="translate(250.84407,1098.5761)"
       style="fill:#888a85"
       x="0"
       y="0"
       width="128"
       height="128" />
    <use
       xlink:href="#outline1"
       class="aluminium4"
       id="use39-1-7-82"
       transform="translate(250.84407,1098.5761)"
       style="fill:#888a85"
       x="0"
       y="0"
       width="128"
       height="128" />
    <use
       xlink:href="#outline1"
       class="aluminium4"
       id="use39-1-7-45"
       transform="translate(250.84407,1098.5761)"
       style="fill:#888a85"
       x="0"
       y="0"
       width="128"
       height="128" />
    <use
       xlink:href="#outline1"
       class="aluminium4"
       id="use39-1-7-1"
       transform="translate(250.84407,1098.5761)"
       style="fill:#888a85"
       x="0"
       y="0"
       width="128"
       height="128" />
    <use
       xlink:href="#outline1"
       class="aluminium4"
       id="use39-1-7-7"
       transform="translate(250.84407,1098.5761)"
       style="fill:#888a85"
       x="0"
       y="0"
       width="128"
       height="128" />
    <use
       xlink:href="#outline1"
       class="aluminium4"
       id="use39-1-7-11"
       transform="translate(250.84407,1098.5761)"
       style="fill:#888a85"
       x="0"
       y="0"
       width="128"
       height="128" />
    <use
       xlink:href="#outline1"
       class="aluminium4"
       id="use39-1-7-5"
       transform="translate(-19.150872,1141.5298)"
       style="fill:#888a85"
       x="0"
       y="0"
       width="128"
       height="128" />
    <use
       xlink:href="#outline1"
       class="aluminium4"
       id="use39-76"
       transform="translate(113.35592,1036.6334)"
       style="fill:#888a85"
       x="0"
       y="0"
       width="128"
       height="128" />
    <use
       xlink:href="#outline1"
       class="aluminium4"
       id="use39-14"
       transform="translate(113.35592,1036.6334)"
       style="fill:#888a85"
       x="0"
       y="0"
       width="128"
       height="128" />
    <use
       xlink:href="#outline1"
       class="aluminium4"
       id="use39-2"
       transform="translate(113.35592,1036.6334)"
       style="fill:#888a85"
       x="0"
       y="0"
       width="128"
       height="128" />
    <g
       style="opacity:0.6;fill:#333333;fill-opacity:1;stroke:#333333;stroke-width:3;stroke-miterlimit:4;stroke-opacity:1;stroke-dasharray:none"
       transform="matrix(0.7257054,-0.68800558,0.68800558,0.7257054,-690.52663,287.09003)"
       id="g4040" />
    <g
       id="g3798"
       style="opacity:0.6">
      <g
         style="opacity:1;fill:#333333;fill-opacity:1;stroke:none"
         transform="matrix(0.10102921,-0.11635155,0.09626346,0.09279862,-95.092211,952.47316)"
         id="g3012">
        <path
           style="fill:#333333;fill-opacity:1;fill-rule:nonzero;stroke:none"
           d="m 49.903353,1082.2064 -2.903463,-72.0039 -5.99989,-0.01 -3.096507,71.9959 11.99986,0.016 z m -3.773946,-5.4425 c -0.0015,1.3806 -1.122662,2.4985 -2.50322,2.4966 -1.380819,0 -2.498588,-1.1227 -2.496687,-2.5033 0.0067,-1.3808 1.122641,-2.4986 2.50335,-2.4968 1.380629,0 2.498458,1.1228 2.496557,2.5035 z"
           id="path3014"
           inkscape:connector-curvature="0" />
        <path
           style="fill:#333333;fill-opacity:1;fill-rule:nonzero;stroke:none"
           d="m 48.285712,1012.648 c 0,0 7.999997,0 7.999997,-12 0,-12.00012 -7.999997,-12.00012 -7.999997,-12.00012 l 0,16.00012 -7.999998,0 0,-16.00012 c 0,0 -7.999998,0 -7.999998,12.00012 0,12 7.999998,12 7.999998,12 z"
           id="path3016"
           inkscape:connector-curvature="0" />
      </g>
      <path
         style="opacity:1;fill:none;stroke:#333333;stroke-width:1;stroke-linecap:butt;stroke-linejoin:miter;stroke-miterlimit:0;stroke-opacity:1;stroke-dasharray:none"
         d="m 2.7312776,1037.0029 12.5374454,0 c 0.05012,0 0.09047,0.04 0.09047,0.091 l 0,12.5374 c 0,0.05 -0.04035,0.091 -0.09047,0.091 l -12.5374454,0 c -0.050123,0 -0.090475,-0.04 -0.090475,-0.091 l 0,-12.5374 c 0,-0.05 0.040352,-0.091 0.090475,-0.091 z"
         id="rect3775"
         inkscape:connector-curvature="0" />
    </g>
  </g>
</svg>
