<?xml version="1.0" encoding="UTF-8" standalone="no"?>
<!-- Created with Inkscape (http://www.inkscape.org/) -->

<svg
   xmlns:dc="http://purl.org/dc/elements/1.1/"
   xmlns:cc="http://creativecommons.org/ns#"
   xmlns:rdf="http://www.w3.org/1999/02/22-rdf-syntax-ns#"
   xmlns:svg="http://www.w3.org/2000/svg"
   xmlns="http://www.w3.org/2000/svg"
   xmlns:sodipodi="http://sodipodi.sourceforge.net/DTD/sodipodi-0.dtd"
   xmlns:inkscape="http://www.inkscape.org/namespaces/inkscape"
   width="18"
   height="18"
   id="svg3949"
   version="1.1"
   inkscape:version="0.48.0 r9654"
   sodipodi:docname="ic_menu_cleanup.svg">
  <defs
     id="defs3" />
  <sodipodi:namedview
     inkscape:document-units="mm"
     id="base"
     pagecolor="#ffffff"
     bordercolor="#666666"
     borderopacity="1.0"
     inkscape:pageopacity="0.0"
     inkscape:pageshadow="2"
     inkscape:zoom="11.313709"
     inkscape:cx="-0.91228185"
     inkscape:cy="14.772719"
     inkscape:current-layer="layer1"
     showgrid="true"
     units="px"
     inkscape:window-width="1280"
     inkscape:window-height="750"
     inkscape:window-x="-8"
     inkscape:window-y="-8"
     inkscape:window-maximized="1">
    <inkscape:grid
       type="xygrid"
       id="grid3955"
       empspacing="5"
       visible="true"
       enabled="true"
       snapvisiblegridlinesonly="true" />
  </sodipodi:namedview>
  <metadata
     id="metadata4">
    <rdf:RDF>
      <cc:Work
         rdf:about="">
        <dc:format>image/svg+xml</dc:format>
        <dc:type
           rdf:resource="http://purl.org/dc/dcmitype/StillImage" />
        <dc:title />
      </cc:Work>
    </rdf:RDF>
  </metadata>
  <g
     inkscape:label="Layer 1"
     inkscape:groupmode="layer"
     id="layer1"
     transform="translate(0,-1034.3622)">
    <path
       inkscape:connector-curvature="0"
       style="opacity:0.59999999999999998;fill:#333333;fill-opacity:1;fill-rule:nonzero;stroke:none;stroke-width:0.02301844000000000;stroke-linecap:butt;stroke-linejoin:round;stroke-miterlimit:4;stroke-opacity:0.20000000000000001;stroke-dasharray:none"
       d="m 1.4776625,1034.352 c -0.1388685,0 -0.1972305,0.011 -0.3101123,0.046 -0.30185402,0.095 -0.59847233,0.2696 -0.78456556,0.457 -0.11962717,0.1204 -0.26291169,0.393 -0.29339971,0.5396 -0.03357057,0.1612 -0.03856951,0.5245 0,0.7031 0.11729451,0.5433 0.50952815,1.267 1.11324747,2.062 0.3119681,0.4108 0.5926849,0.741 1.2543765,1.4768 0.8486812,0.9437 0.9011266,1.0109 0.8087062,1.0905 -0.024068,0.021 -0.3758981,0.2323 -0.7734239,0.4801 l -0.7149296,0.457 0.6675771,0.5982 0.6675772,0.5972 0.024141,0.3864 c 0.099902,1.4241 0.3697592,2.7934 0.7734239,3.9967 0.4723508,1.408 1.1543246,2.6403 1.9683777,3.5388 0.695907,0.7681 1.5613268,1.3858 2.0974361,1.4889 0.1859846,0.036 0.2855905,0.038 0.5867994,0.011 1.581756,-0.1424 4.638546,-1.539 8.472381,-3.8787 0.886849,-0.5412 0.994834,-0.6159 0.973047,-0.6325 -0.0096,-0.01 -0.115215,-0.046 -0.234906,-0.083 -0.248337,-0.075 -0.774097,-0.2774 -1.019471,-0.3864 -0.645375,-0.2867 -1.494888,-0.7789 -2.155931,-1.266 -0.705998,-0.5202 -1.315545,-1.0403 -2.742729,-2.3554 -1.352166,-1.246 -1.9856546,-1.7971 -2.6600966,-2.2738 -0.4788422,-0.3384 -1.001278,-0.6454 -1.4057187,-0.8313 -0.1833143,-0.084 -0.2026597,-0.095 -0.2228352,-0.1644 -0.012237,-0.042 -0.1016114,-0.3524 -0.1996234,-0.691 -0.253238,-0.875 -0.2301935,-0.8045 -0.2813293,-0.7969 -0.02438,0 -0.3469357,0.1273 -0.7149296,0.2693 -0.5089702,0.1965 -0.6745839,0.2497 -0.7028593,0.2341 -0.035041,-0.019 -0.1128367,-0.1906 -0.4800241,-1.0542 -0.4635684,-1.0903 -1.0334468,-2.1242 -1.5004237,-2.7307 -0.42231,-0.5485 -0.8300268,-0.9086 -1.2543766,-1.1137 -0.3070066,-0.1484 -0.424893,-0.1755 -0.7845657,-0.1755 -0.069351,0 -0.1245509,-6e-4 -0.1708403,0 z m -0.056637,0.6204 c 0.2943339,0 0.5329476,0.2387 0.5329476,0.5332 0,0.2944 -0.2386137,0.5331 -0.5329476,0.5331 -0.2943338,0 -0.53294743,-0.2387 -0.53294743,-0.5331 0,-0.2945 0.23861363,-0.5332 0.53294743,-0.5332 z"
       id="path3931" />
  </g>
</svg>
