<?xml version="1.0" encoding="UTF-8" standalone="no"?>
<!-- Created with Inkscape (http://www.inkscape.org/) -->

<svg
   xmlns:dc="http://purl.org/dc/elements/1.1/"
   xmlns:cc="http://creativecommons.org/ns#"
   xmlns:rdf="http://www.w3.org/1999/02/22-rdf-syntax-ns#"
   xmlns:svg="http://www.w3.org/2000/svg"
   xmlns="http://www.w3.org/2000/svg"
   xmlns:sodipodi="http://sodipodi.sourceforge.net/DTD/sodipodi-0.dtd"
   xmlns:inkscape="http://www.inkscape.org/namespaces/inkscape"
   width="24"
   height="24"
   id="svg3975"
   version="1.1"
   inkscape:version="0.48.2 r9819"
   sodipodi:docname="ic_menu_cleanup 24x24.svg">
  <defs
     id="defs3977" />
  <sodipodi:namedview
     id="base"
     pagecolor="#ffffff"
     bordercolor="#666666"
     borderopacity="1.0"
     inkscape:pageopacity="0.0"
     inkscape:pageshadow="2"
     inkscape:zoom="22.4"
     inkscape:cx="-0.42431441"
     inkscape:cy="13.449382"
     inkscape:document-units="px"
     inkscape:current-layer="layer1"
     showgrid="true"
     inkscape:window-width="1280"
     inkscape:window-height="921"
     inkscape:window-x="-4"
     inkscape:window-y="-4"
     inkscape:window-maximized="1">
    <inkscape:grid
       type="xygrid"
       id="grid3983"
       empspacing="5"
       visible="true"
       enabled="true"
       snapvisiblegridlinesonly="true" />
  </sodipodi:namedview>
  <metadata
     id="metadata3980">
    <rdf:RDF>
      <cc:Work
         rdf:about="">
        <dc:format>image/svg+xml</dc:format>
        <dc:type
           rdf:resource="http://purl.org/dc/dcmitype/StillImage" />
        <dc:title />
      </cc:Work>
    </rdf:RDF>
  </metadata>
  <g
     inkscape:label="Layer 1"
     inkscape:groupmode="layer"
     id="layer1"
     transform="translate(0,-1028.3622)">
    <path
       inkscape:connector-curvature="0"
       style="opacity:0.6;fill:#333333;fill-opacity:0.2;fill-rule:nonzero;stroke:#221733;stroke-width:0.02301846;stroke-linecap:butt;stroke-linejoin:round;stroke-miterlimit:4;stroke-opacity:0.2;stroke-dasharray:none"
       d="m 1.9448985,1028.425 c -0.1847253,0 -0.2623595,0.015 -0.4125164,0.062 -0.4015309,0.1269 -0.79609727,0.3586 -1.04364089,0.6078 -0.15912986,0.1603 -0.34972924,0.5229 -0.39028459,0.7179 -0.04465583,0.2144 -0.05130619,0.6976 0,0.9353 0.15602689,0.7227 0.67778161,1.6853 1.48085868,2.7427 0.4149847,0.5465 0.7883988,0.9858 1.6685908,1.9645 1.1289287,1.2555 1.1986919,1.3446 1.075753,1.4506 -0.032018,0.028 -0.5000254,0.3089 -1.0288205,0.6387 l -0.95101,0.6078 0.888021,0.7957 0.8880216,0.7945 0.03211,0.5139 c 0.1328906,1.8943 0.4918597,3.7158 1.0288198,5.3164 0.6283289,1.8729 1.5355,3.512 2.618366,4.7072 0.9257063,1.0217 2.0769006,1.8435 2.790042,1.9805 0.247399,0.048 0.379897,0.051 0.780569,0.015 2.104075,-0.1894 6.170263,-2.0472 11.270089,-5.1595 1.179701,-0.7198 1.323344,-0.8191 1.294362,-0.8413 -0.01278,-0.01 -0.153261,-0.062 -0.312474,-0.1099 -0.330342,-0.1005 -1.029715,-0.369 -1.356116,-0.514 -0.858489,-0.3814 -1.988524,-1.036 -2.867852,-1.684 -0.93913,-0.6919 -1.749958,-1.384 -3.648421,-3.1333 -1.798671,-1.6573 -2.641347,-2.3903 -3.538499,-3.0244 -0.636964,-0.4503 -1.331916,-0.8585 -1.869908,-1.1058 -0.243849,-0.1122 -0.269582,-0.1266 -0.296419,-0.2187 -0.01628,-0.056 -0.1351654,-0.4689 -0.2655425,-0.9192 -0.3368611,-1.1639 -0.3062067,-1.0702 -0.374229,-1.06 -0.03243,0.01 -0.4614989,0.1693 -0.95101,0.3582 -0.6770396,0.2613 -0.897342,0.3321 -0.9349542,0.3113 -0.046612,-0.026 -0.1500972,-0.2535 -0.6385356,-1.4023 -0.6166451,-1.4503 -1.3747062,-2.8255 -1.9958862,-3.6323 -0.5617627,-0.7296 -1.1041141,-1.2085 -1.6685906,-1.4814 -0.4083852,-0.1974 -0.5651994,-0.2335 -1.0436412,-0.2335 -0.092252,0 -0.1656799,0 -0.2272543,0 z m -0.075339,0.8253 c 0.3915272,0 0.7089343,0.3175 0.7089343,0.7092 0,0.3917 -0.3174071,0.7091 -0.7089343,0.7091 -0.3915279,0 -0.7089354,-0.3174 -0.7089354,-0.7091 0,-0.3917 0.3174075,-0.7092 0.7089354,-0.7092 z"
       id="path3931" />
    <path
       inkscape:connector-curvature="0"
       style="opacity:0.8;fill:#ffffff;fill-opacity:1;fill-rule:nonzero;stroke:#221733;stroke-width:0.02301846;stroke-linecap:butt;stroke-linejoin:round;stroke-miterlimit:4;stroke-opacity:0.2;stroke-dasharray:none"
       d="m 1.9449875,1028.4246 c -0.1847254,0 -0.2623595,0.015 -0.4125167,0.062 -0.4015304,0.1268 -0.79609718,0.3586 -1.04364055,0.6078 -0.15913013,0.1602 -0.34972918,0.5229 -0.39028485,0.7178 -0.04465517,0.2145 -0.05130353,0.6977 0,0.9354 0.15602689,0.7226 0.67778162,1.6853 1.4808586,2.7427 0.414985,0.5465 0.7883987,0.9858 1.6685907,1.9645 1.1289285,1.2554 1.1986925,1.3446 1.075753,1.4505 -0.032018,0.028 -0.5000254,0.309 -1.0288198,0.6388 l -0.9510101,0.6078 0.8880209,0.7957 0.8880217,0.7944 0.03211,0.514 c 0.1328901,1.8943 0.4918597,3.7158 1.0288198,5.3164 0.6283282,1.8729 1.5355001,3.512 2.618366,4.7071 0.9257063,1.0218 2.0769006,1.8435 2.7900418,1.9806 0.247399,0.048 0.379897,0.051 0.78057,0.015 2.104075,-0.1894 6.170263,-2.0472 11.270089,-5.1595 1.179701,-0.7199 1.323344,-0.8192 1.294361,-0.8413 -0.01278,-0.01 -0.153259,-0.062 -0.312474,-0.11 -0.330342,-0.1004 -1.029715,-0.3689 -1.356115,-0.5139 -0.858488,-0.3815 -1.988524,-1.0361 -2.867853,-1.684 -0.939129,-0.692 -1.749958,-1.384 -3.648421,-3.1333 -1.79867,-1.6573 -2.641346,-2.3903 -3.538498,-3.0245 -0.636965,-0.4502 -1.331916,-0.8585 -1.86991,-1.1057 -0.243847,-0.1122 -0.26958,-0.1266 -0.296418,-0.2187 -0.01627,-0.056 -0.1351651,-0.4689 -0.2655423,-0.9193 -0.336861,-1.1638 -0.3062066,-1.0701 -0.3742289,-1.06 -0.03243,0.01 -0.4614989,0.1693 -0.95101,0.3583 -0.6770396,0.2613 -0.897342,0.332 -0.9349542,0.3113 -0.046612,-0.026 -0.1500973,-0.2535 -0.6385356,-1.4023 -0.6166458,-1.4503 -1.3747069,-2.8256 -1.9958862,-3.6323 -0.5617633,-0.7296 -1.1041141,-1.2086 -1.6685907,-1.4814 -0.4083851,-0.1974 -0.5651993,-0.2335 -1.0436418,-0.2335 -0.092251,0 -0.1656794,0 -0.2272536,0 z m -0.075339,0.8253 c 0.3915268,0 0.7089345,0.3176 0.7089345,0.7093 0,0.3917 -0.3174077,0.709 -0.7089345,0.709 -0.3915279,0 -0.7089357,-0.3173 -0.7089357,-0.709 0,-0.3917 0.3174078,-0.7093 0.7089357,-0.7093 z"
       id="path3931-1" />
  </g>
</svg>
