<?xml version="1.0" encoding="UTF-8" standalone="no"?>
<!-- Created with Inkscape (http://www.inkscape.org/) -->

<svg
   xmlns:dc="http://purl.org/dc/elements/1.1/"
   xmlns:cc="http://creativecommons.org/ns#"
   xmlns:rdf="http://www.w3.org/1999/02/22-rdf-syntax-ns#"
   xmlns:svg="http://www.w3.org/2000/svg"
   xmlns="http://www.w3.org/2000/svg"
   xmlns:sodipodi="http://sodipodi.sourceforge.net/DTD/sodipodi-0.dtd"
   xmlns:inkscape="http://www.inkscape.org/namespaces/inkscape"
   width="24"
   height="24"
   id="svg3975"
   version="1.1"
   inkscape:version="0.48.2 r9819"
   sodipodi:docname="ic_menu_cleanup 24x24.svg">
  <defs
     id="defs3977" />
  <sodipodi:namedview
     id="base"
     pagecolor="#ffffff"
     bordercolor="#666666"
     borderopacity="1.0"
     inkscape:pageopacity="0.0"
     inkscape:pageshadow="2"
     inkscape:zoom="22.4"
     inkscape:cx="-0.42431441"
     inkscape:cy="13.449382"
     inkscape:document-units="px"
     inkscape:current-layer="layer1"
     showgrid="true"
     inkscape:window-width="1280"
     inkscape:window-height="921"
     inkscape:window-x="-4"
     inkscape:window-y="-4"
     inkscape:window-maximized="1">
    <inkscape:grid
       type="xygrid"
       id="grid3983"
       empspacing="5"
       visible="true"
       enabled="true"
       snapvisiblegridlinesonly="true" />
  </sodipodi:namedview>
  <metadata
     id="metadata3980">
    <rdf:RDF>
      <cc:Work
         rdf:about="">
        <dc:format>image/svg+xml</dc:format>
        <dc:type
           rdf:resource="http://purl.org/dc/dcmitype/StillImage" />
        <dc:title />
      </cc:Work>
    </rdf:RDF>
  </metadata>
  <g
     inkscape:label="Layer 1"
     inkscape:groupmode="layer"
     id="layer1"
     transform="translate(0,-1028.3622)">
    <path
       inkscape:connector-curvature="0"
       style="opacity:0.6;fill:#333333;fill-opacity:1;fill-rule:nonzero;stroke:#221733;stroke-width:0.02301844;stroke-linecap:butt;stroke-linejoin:round;stroke-miterlimit:4;stroke-opacity:0.2;stroke-dasharray:none"
       d="m 1.9037209,1028.3761 c -0.1854823,0 -0.2634346,0.014 -0.4142073,0.062 -0.403177,0.1274 -0.79936071,0.3601 -1.04791961,0.6104 -0.15978223,0.1609 -0.35116286,0.525 -0.39188474,0.7208 -0.04483916,0.2153 -0.05151608,0.7004 0,0.9391 0.15666659,0.7256 0.68056073,1.6922 1.48692975,2.7541 0.416686,0.5487 0.7916306,0.9897 1.6754312,1.9725 1.1335568,1.2604 1.2036064,1.3501 1.0801633,1.4564 -0.032147,0.028 -0.5020751,0.3103 -1.0330379,0.6414 l -0.954909,0.6104 0.8916618,0.7989 0.8916617,0.7977 0.032244,0.5161 c 0.1334356,1.9021 0.4938759,3.731 1.0330379,5.3382 0.6309043,1.8807 1.5417952,3.5265 2.6291001,4.7266 0.9295014,1.0259 2.0854153,1.851 2.8014799,1.9886 0.248413,0.048 0.381454,0.051 0.783769,0.015 2.112701,-0.1902 6.195559,-2.0556 11.316292,-5.1806 1.184537,-0.7229 1.32877,-0.8227 1.299668,-0.8449 -0.01283,-0.01 -0.153888,-0.062 -0.313756,-0.1104 -0.331695,-0.1008 -1.033936,-0.3705 -1.361675,-0.5161 -0.862007,-0.3829 -1.996675,-1.0403 -2.879609,-1.6909 -0.94298,-0.6948 -1.757132,-1.3896 -3.663378,-3.1461 -1.806044,-1.6642 -2.652175,-2.4002 -3.553006,-3.0369 -0.639574,-0.4521 -1.337375,-0.862 -1.877574,-1.1103 -0.244847,-0.1126 -0.270686,-0.1271 -0.297634,-0.2196 -0.01634,-0.056 -0.1357186,-0.4707 -0.26663,-0.923 -0.3382423,-1.1687 -0.3074622,-1.0745 -0.3757628,-1.0644 -0.032562,0 -0.4633911,0.17 -0.954909,0.3597 -0.6798155,0.2624 -0.9010206,0.3335 -0.9387872,0.3127 -0.046803,-0.026 -0.1507126,-0.2546 -0.6411535,-1.4081 -0.6191735,-1.4562 -1.3803422,-2.8372 -2.0040688,-3.6473 -0.564066,-0.7326 -1.1086404,-1.2135 -1.6754311,-1.4874 -0.4100591,-0.1982 -0.5675162,-0.2345 -1.0479197,-0.2345 -0.09263,0 -0.1663587,-9e-4 -0.228186,0 z m -0.075649,0.8287 c 0.3931324,0 0.7118412,0.3188 0.7118412,0.7121 0,0.3933 -0.3187088,0.7121 -0.7118412,0.7121 -0.3931325,0 -0.7118413,-0.3188 -0.7118413,-0.7121 0,-0.3933 0.3187088,-0.7121 0.7118413,-0.7121 z"
       id="path3931" />
  </g>
</svg>
