<?xml version="1.0" encoding="UTF-8" standalone="no"?>
<!-- Created with Inkscape (http://www.inkscape.org/) -->

<svg
   xmlns:dc="http://purl.org/dc/elements/1.1/"
   xmlns:cc="http://creativecommons.org/ns#"
   xmlns:rdf="http://www.w3.org/1999/02/22-rdf-syntax-ns#"
   xmlns:svg="http://www.w3.org/2000/svg"
   xmlns="http://www.w3.org/2000/svg"
   xmlns:sodipodi="http://sodipodi.sourceforge.net/DTD/sodipodi-0.dtd"
   xmlns:inkscape="http://www.inkscape.org/namespaces/inkscape"
   width="744.09448819"
   height="1052.3622047"
   id="svg2"
   version="1.1"
   inkscape:version="0.48.2 r9819"
   sodipodi:docname="save_light.svg"
   enable-background="new"
   inkscape:export-filename="C:\Users\DeMon1ZeD\Desktop\ic_menu_save\light\xhdpi\ic_menu_save.png"
   inkscape:export-xdpi="28.798288"
   inkscape:export-ydpi="28.798288">
  <defs
     id="defs4" />
  <sodipodi:namedview
     id="base"
     pagecolor="#ffffff"
     bordercolor="#666666"
     borderopacity="1.0"
     inkscape:pageopacity="0.0"
     inkscape:pageshadow="2"
     inkscape:zoom="4"
     inkscape:cx="219.33897"
     inkscape:cy="679.41344"
     inkscape:document-units="px"
     inkscape:current-layer="layer1"
     showgrid="false"
     showguides="true"
     inkscape:window-width="1920"
     inkscape:window-height="1138"
     inkscape:window-x="-8"
     inkscape:window-y="-8"
     inkscape:window-maximized="1"
     inkscape:guide-bbox="true">
    <sodipodi:guide
       orientation="0,1"
       position="183.85938,606.98438"
       id="guide3013" />
    <sodipodi:guide
       orientation="0,1"
       position="161.5739,654.95766"
       id="guide3015" />
    <sodipodi:guide
       orientation="0,1"
       position="183.42578,649"
       id="guide3017" />
    <sodipodi:guide
       orientation="0,1"
       position="183,643"
       id="guide3019" />
    <sodipodi:guide
       orientation="0,1"
       position="183.5,637"
       id="guide3021" />
    <sodipodi:guide
       orientation="0,1"
       position="183.73438,631"
       id="guide3023" />
    <sodipodi:guide
       orientation="0,1"
       position="182.59766,625.00001"
       id="guide3027" />
    <sodipodi:guide
       orientation="0,1"
       position="180.75417,618.99465"
       id="guide3029" />
    <sodipodi:guide
       orientation="0,1"
       position="176.82089,612.99529"
       id="guide3031" />
    <sodipodi:guide
       orientation="1,0"
       position="158,587.21875"
       id="guide3051" />
    <sodipodi:guide
       orientation="1,0"
       position="266,648.21875"
       id="guide3063" />
    <sodipodi:guide
       orientation="1,0"
       position="176.0033,661.38792"
       id="guide3008" />
    <sodipodi:guide
       orientation="1,0"
       position="248.01563,665.28125"
       id="guide3010" />
    <sodipodi:guide
       orientation="0,1"
       position="183.3125,600.98438"
       id="guide3041" />
    <sodipodi:guide
       orientation="0,1"
       position="185.23438,589"
       id="guide3043" />
    <sodipodi:guide
       orientation="0,1"
       position="187.61532,660.99016"
       id="guide3105" />
    <sodipodi:guide
       orientation="0,1"
       position="187.26563,666.98438"
       id="guide3107" />
    <sodipodi:guide
       orientation="1,0"
       position="260.01563,648.4375"
       id="guide3119" />
    <sodipodi:guide
       orientation="1,0"
       position="253.99497,695.42847"
       id="guide3121" />
    <sodipodi:guide
       orientation="1,0"
       position="184,654.01563"
       id="guide3125" />
    <sodipodi:guide
       orientation="1,0"
       position="240.01563,658.34375"
       id="guide3127" />
    <sodipodi:guide
       orientation="0,1"
       position="162.41406,738.9961"
       id="guide3129" />
    <sodipodi:guide
       orientation="1,0"
       position="137,689.43751"
       id="guide3953" />
    <sodipodi:guide
       orientation="1,0"
       position="287,654.09376"
       id="guide3955" />
  </sodipodi:namedview>
  <metadata
     id="metadata7">
    <rdf:RDF>
      <cc:Work
         rdf:about="">
        <dc:format>image/svg+xml</dc:format>
        <dc:type
           rdf:resource="http://purl.org/dc/dcmitype/StillImage" />
        <dc:title></dc:title>
      </cc:Work>
    </rdf:RDF>
  </metadata>
  <g
     inkscape:label="Layer 1"
     inkscape:groupmode="layer"
     id="layer1"
     style="display:inline;opacity:1">
    <path
       style="opacity:0.59999999999999998;fill:#333333;fill-opacity:1;fill-rule:nonzero;stroke:none"
       d="M 235.96875,313.40625 C 226.10132,313.44297 214.375,313.5 214.375,313.5 l -39.3125,0 C 165.43984,314.58354 158,322.70347 158,332.625 l 0,111.5 c 0,10.6645 8.5855,19.25 19.25,19.25 l 69.5,0 c 10.2449,0 18.54815,-7.92194 19.1875,-18 l 0.0625,0 0,-1.25 0,-2.75 0,-30.375 -5.96875,-6.25 0,-11.5 c 0,0 -0.005,-1.71875 1.6875,-1.71875 l 2.75,0 c 0,0 1.53125,0.0814 1.53125,-0.875 L 266,376.5 c 0,0 -0.0188,-1.48725 -2.03125,-3.5 0,0 -9.98223,-10.99222 -9.96875,-11 0,-9.79167 0,-29.375 0,-29.375 0,-10.25629 -7.93719,-18.59582 -18.03125,-19.21875 z M 181.5,385.375 l 61.03125,0 c 3.04683,0 5.5,2.45317 5.5,5.5 l 0,55 c 0,3.04683 -2.45317,5.5 -5.5,5.5 l -61.03125,0 c -3.04683,0 -5.5,-2.45317 -5.5,-5.5 l 0,-55 c 0,-3.04683 2.45317,-5.5 5.5,-5.5 z m 2.5,12.03125 0,5.96875 56.03125,0 0,-5.96875 z m 0,17.96875 0,6 56.03125,0 0,-6 z m 0,18 0,6 56.03125,0 0,-6 z"
       id="path3805"
       inkscape:connector-curvature="0"
       sodipodi:nodetypes="cccsssscccccccscscccscsssssssssccccccccccccccc" />
  </g>
</svg>
