<?xml version="1.0" encoding="UTF-8" standalone="no"?>
<!-- Created with Inkscape (http://www.inkscape.org/) -->

<svg
   xmlns:dc="http://purl.org/dc/elements/1.1/"
   xmlns:cc="http://creativecommons.org/ns#"
   xmlns:rdf="http://www.w3.org/1999/02/22-rdf-syntax-ns#"
   xmlns:svg="http://www.w3.org/2000/svg"
   xmlns="http://www.w3.org/2000/svg"
   xmlns:sodipodi="http://sodipodi.sourceforge.net/DTD/sodipodi-0.dtd"
   xmlns:inkscape="http://www.inkscape.org/namespaces/inkscape"
   width="48"
   height="48"
   id="svg4020"
   version="1.1"
   inkscape:version="0.48.2 r9819"
   sodipodi:docname="ic_menu_cleanup 48x48.svg">
  <defs
     id="defs4022" />
  <sodipodi:namedview
     id="base"
     pagecolor="#ffffff"
     bordercolor="#666666"
     borderopacity="1.0"
     inkscape:pageopacity="0.0"
     inkscape:pageshadow="2"
     inkscape:zoom="5.6"
     inkscape:cx="-19.46604"
     inkscape:cy="18.800736"
     inkscape:document-units="px"
     inkscape:current-layer="layer1"
     showgrid="true"
     inkscape:window-width="1280"
     inkscape:window-height="921"
     inkscape:window-x="-4"
     inkscape:window-y="-4"
     inkscape:window-maximized="1">
    <inkscape:grid
       type="xygrid"
       id="grid4028"
       empspacing="5"
       visible="true"
       enabled="true"
       snapvisiblegridlinesonly="true" />
  </sodipodi:namedview>
  <metadata
     id="metadata4025">
    <rdf:RDF>
      <cc:Work
         rdf:about="">
        <dc:format>image/svg+xml</dc:format>
        <dc:type
           rdf:resource="http://purl.org/dc/dcmitype/StillImage" />
        <dc:title />
      </cc:Work>
    </rdf:RDF>
  </metadata>
  <g
     inkscape:label="Layer 1"
     inkscape:groupmode="layer"
     id="layer1"
     transform="translate(0,-1004.3622)">
    <path
       inkscape:connector-curvature="0"
       style="opacity:0.6;fill:#333333;fill-opacity:0.2;fill-rule:nonzero;stroke:#221733;stroke-width:0.02301846;stroke-linecap:butt;stroke-linejoin:round;stroke-miterlimit:4;stroke-opacity:0.2;stroke-dasharray:none"
       d="m 3.8373699,1004.4256 c -0.3704132,0 -0.526086,0.03 -0.8271829,0.1243 -0.8051556,0.2544 -1.5963449,0.7191 -2.09272368,1.2188 -0.31908974,0.3214 -0.70128157,1.0485 -0.78260303,1.4395 -0.08955287,0.43 -0.10288754,1.3988 0,1.8754 0.31286756,1.4492 1.35909601,3.3794 2.96943741,5.4997 0.8321338,1.0959 1.580909,1.9768 3.3458824,3.9393 2.2637445,2.5175 2.4036342,2.6962 2.1571152,2.9087 -0.064207,0.056 -1.0026572,0.6194 -2.0630044,1.2808 l -1.9069788,1.2187 1.7806723,1.5955 1.7806723,1.5932 0.064387,1.0305 c 0.2664749,3.7984 0.9862847,7.451 2.0630053,10.6605 1.259934,3.7555 3.079006,7.0422 5.250384,9.4389 1.856238,2.0487 4.164631,3.6966 5.594631,3.9713 0.496089,0.096 0.761775,0.1023 1.565209,0.03 4.219121,-0.3797 12.372699,-4.105 22.598944,-10.3458 2.365553,-1.4434 2.653588,-1.6425 2.595473,-1.687 -0.02562,-0.02 -0.307321,-0.1242 -0.626578,-0.2203 -0.662407,-0.2016 -2.064799,-0.7399 -2.719304,-1.0307 -1.721454,-0.7648 -3.987416,-2.0774 -5.750657,-3.3768 -1.883157,-1.3874 -3.509041,-2.7752 -7.315866,-6.2829 -3.606721,-3.3232 -5.296466,-4.793 -7.095449,-6.0645 -1.277248,-0.903 -2.670776,-1.7215 -3.749566,-2.2174 -0.488969,-0.225 -0.540569,-0.2539 -0.594383,-0.4386 -0.03265,-0.1122 -0.271035,-0.9402 -0.532471,-1.8431 -0.675478,-2.3339 -0.614009,-2.146 -0.75041,-2.1255 -0.06503,0.02 -0.925402,0.3394 -1.906978,0.7182 -1.357609,0.524 -1.799363,0.6659 -1.874783,0.6242 -0.09346,-0.052 -0.300977,-0.5082 -1.280399,-2.8118 -1.236506,-2.9082 -2.756583,-5.6658 -4.0021815,-7.2836 -1.1264531,-1.463 -2.213985,-2.4233 -3.3458803,-2.9705 -0.8188994,-0.3958 -1.1333471,-0.4682 -2.0927238,-0.4682 -0.184981,0 -0.3322239,0 -0.455695,0 z m -0.1510728,1.6548 c 0.7850975,0 1.4215665,0.6367 1.4215665,1.4222 0,0.7854 -0.636469,1.4219 -1.4215665,1.4219 -0.7850955,0 -1.4215665,-0.6365 -1.4215665,-1.4219 0,-0.7855 0.636471,-1.4222 1.4215665,-1.4222 z"
       id="path3931" />
    <path
       inkscape:connector-curvature="0"
       style="opacity:0.8;fill:#ffffff;fill-opacity:1;fill-rule:nonzero;stroke:#221733;stroke-width:0.02301846;stroke-linecap:butt;stroke-linejoin:round;stroke-miterlimit:4;stroke-opacity:0.2;stroke-dasharray:none"
       d="m 3.8375484,1004.4248 c -0.3704132,0 -0.526086,0.03 -0.8271829,0.1243 -0.8051557,0.2542 -1.5963449,0.7191 -2.09272372,1.2188 -0.31908974,0.3212 -0.70128157,1.0485 -0.78260503,1.4393 -0.08953282,0.4302 -0.10286749,1.399 0,1.8756 0.31286755,1.449 1.35909805,3.3794 2.96943945,5.4997 0.8321338,1.0959 1.5809088,1.9768 3.3458824,3.9393 2.2637425,2.5173 2.4036342,2.6962 2.1571152,2.9085 -0.064207,0.056 -1.0026592,0.6196 -2.0630045,1.281 l -1.9069788,1.2187 1.7806724,1.5955 1.7806723,1.593 0.064387,1.0307 c 0.2664728,3.7984 0.9862845,7.4509 2.0630048,10.6605 1.259933,3.7555 3.079006,7.0422 5.250385,9.4387 1.856238,2.0489 4.16463,3.6966 5.594631,3.9715 0.496088,0.096 0.761776,0.1023 1.56521,0.03 4.219122,-0.3797 12.372699,-4.105 22.598944,-10.3458 2.365553,-1.4436 2.653588,-1.6427 2.59547,-1.687 -0.02562,-0.02 -0.307317,-0.1242 -0.626577,-0.2205 -0.662406,-0.2014 -2.064799,-0.7397 -2.719302,-1.0305 -1.721451,-0.765 -3.987416,-2.0776 -5.750659,-3.3768 -1.883155,-1.3876 -3.50904,-2.7752 -7.315866,-6.2829 -3.606719,-3.3232 -5.296464,-4.793 -7.095447,-6.0647 -1.27725,-0.9028 -2.670776,-1.7215 -3.749569,-2.2172 -0.488966,-0.225 -0.540565,-0.2539 -0.594382,-0.4386 -0.03262,-0.1122 -0.271035,-0.9402 -0.532469,-1.8433 -0.675478,-2.3337 -0.61401,-2.1458 -0.75041,-2.1255 -0.06503,0.02 -0.925403,0.3394 -1.906978,0.7184 -1.357609,0.524 -1.799361,0.6657 -1.874782,0.6242 -0.09346,-0.052 -0.300978,-0.5082 -1.280401,-2.8118 -1.236508,-2.9082 -2.756582,-5.666 -4.00218,-7.2836 -1.1264571,-1.463 -2.213985,-2.4235 -3.3458824,-2.9705 -0.8188994,-0.3958 -1.1333451,-0.4682 -2.0927257,-0.4682 -0.1849811,0 -0.332222,0 -0.455691,0 z m -0.1510728,1.6548 c 0.7850955,0 1.4215665,0.6369 1.4215665,1.4224 0,0.7854 -0.636471,1.4217 -1.4215665,1.4217 -0.7850955,0 -1.4215665,-0.6363 -1.4215665,-1.4217 0,-0.7855 0.636471,-1.4224 1.4215665,-1.4224 z"
       id="path3931-1" />
  </g>
</svg>
